<?xml version="1.0" standalone="no"?>
<!DOCTYPE svg PUBLIC "-//W3C//DTD SVG 20010904//EN"
 "http://www.w3.org/TR/2001/REC-SVG-20010904/DTD/svg10.dtd">
<svg version="1.0" xmlns="http://www.w3.org/2000/svg"
 width="1755.000000pt" height="1241.000000pt" viewBox="0 0 1755.000000 1241.000000"
 preserveAspectRatio="xMidYMid meet">

<g transform="translate(0.000000,1241.000000) scale(0.100000,-0.100000)"
fill="#000000" stroke="none">
<path d="M2916 8219 c-207 -27 -431 -93 -618 -181 -844 -402 -1303 -1326
-1113 -2241 173 -835 845 -1465 1700 -1592 210 -31 529 -16 750 35 275 64 577
213 805 397 102 83 273 260 347 360 391 528 506 1210 306 1828 -242 748 -887
1289 -1660 1390 -124 16 -403 18 -517 4z m504 -188 c115 -39 204 -90 287 -165
262 -238 358 -623 246 -981 -45 -141 -94 -225 -225 -380 -58 -69 -88 -134 -88
-189 0 -92 59 -176 123 -176 39 0 71 20 178 110 237 199 456 297 689 307 106
5 116 4 133 -15 28 -31 20 -93 -15 -110 -23 -10 -34 -9 -78 8 -139 55 -280 7
-490 -167 -52 -43 -143 -114 -202 -157 -118 -84 -156 -126 -164 -178 -8 -50
13 -68 171 -147 204 -101 248 -115 375 -116 102 0 107 1 157 33 90 58 130 145
103 226 -15 48 -62 86 -106 86 -46 0 -71 -28 -80 -87 -9 -62 -18 -73 -64 -73
-120 0 -98 190 30 268 94 56 197 42 285 -39 59 -54 85 -124 85 -227 0 -96 -27
-158 -92 -219 -94 -86 -194 -118 -347 -110 -126 6 -178 22 -382 118 -81 38
-159 69 -173 69 -61 0 -125 -57 -133 -117 -5 -43 55 -230 109 -337 100 -198
233 -322 397 -370 112 -33 204 -16 268 49 34 33 43 50 43 76 0 62 -32 82 -118
73 -52 -6 -62 -4 -81 15 -29 29 -28 81 2 109 71 66 204 53 285 -28 54 -53 67
-87 67 -170 0 -59 -5 -84 -23 -118 -52 -98 -143 -153 -290 -175 -180 -27 -356
50 -545 238 -159 158 -263 325 -367 588 -23 59 -51 119 -63 133 -44 56 -155
80 -250 53 -85 -23 -145 -115 -208 -319 -38 -127 -85 -222 -150 -311 -105
-143 -294 -288 -454 -351 -111 -43 -232 -50 -325 -18 -229 78 -311 288 -171
443 68 75 171 98 256 57 55 -26 70 -59 50 -105 -19 -47 -55 -64 -89 -41 -58
38 -119 0 -118 -73 2 -110 127 -164 295 -127 159 36 301 164 400 361 52 106
117 290 117 334 0 64 -70 131 -137 131 -15 0 -98 -34 -183 -75 -178 -86 -278
-115 -393 -115 -146 0 -264 45 -340 130 -55 61 -77 122 -77 211 0 199 156 330
331 278 84 -26 149 -113 149 -201 0 -40 -5 -50 -32 -73 -23 -20 -38 -25 -57
-20 -31 7 -51 31 -51 60 0 36 -21 85 -40 95 -80 43 -170 -46 -157 -155 7 -69
39 -110 115 -147 61 -30 74 -33 157 -32 77 0 102 5 175 34 129 50 323 144 342
166 48 55 24 106 -72 154 -75 38 -154 104 -298 250 -117 119 -147 138 -195
126 -34 -8 -74 -52 -88 -94 -17 -53 -37 -72 -76 -72 -115 0 -85 174 41 239
144 74 288 19 518 -197 108 -102 139 -121 206 -128 98 -11 168 67 159 179 -6
67 -31 114 -112 207 -152 175 -229 364 -242 592 -21 381 190 743 511 876 122
50 189 62 346 59 133 -3 153 -6 240 -36z"/>
<path d="M2798 6875 c-81 -45 -74 -185 11 -230 47 -24 79 -19 117 19 32 32 40
57 34 111 -9 80 -99 135 -162 100z"/>
<path d="M3430 6868 c-97 -65 -87 -214 15 -234 110 -20 185 146 102 224 -36
34 -76 37 -117 10z"/>
<path d="M14660 7050 l0 -150 145 0 145 0 0 150 0 150 -145 0 -145 0 0 -150z"/>
<path d="M12310 6215 l0 -975 135 0 135 0 1 233 c0 127 4 331 9 452 11 308 37
383 156 441 46 22 70 27 130 27 104 0 176 -36 221 -112 18 -30 38 -79 45 -110
17 -75 17 -397 0 -472 -33 -144 -124 -221 -262 -223 l-71 0 3 -121 3 -120 65
-7 c97 -9 214 8 290 43 188 87 270 289 270 664 0 289 -53 485 -158 588 -159
156 -485 162 -651 12 l-41 -37 0 346 0 346 -140 0 -140 0 0 -975z"/>
<path d="M13800 6398 c0 -505 4 -816 11 -858 12 -77 59 -169 108 -212 19 -17
60 -43 91 -57 49 -23 70 -26 203 -29 l147 -4 0 121 0 121 -91 0 c-102 0 -134
12 -165 64 -18 30 -19 68 -22 839 l-3 807 -139 0 -140 0 0 -792z"/>
<path d="M6350 6640 c-196 -21 -355 -125 -411 -268 -18 -46 -23 -77 -23 -157
0 -89 3 -107 29 -163 48 -106 142 -174 284 -202 25 -5 120 -16 210 -25 189
-17 242 -35 273 -95 23 -43 23 -111 1 -157 -44 -94 -228 -137 -425 -99 -91 18
-149 43 -212 91 l-49 37 -91 -92 -91 -91 40 -34 c62 -54 166 -104 273 -132 83
-22 119 -26 252 -26 174 -1 249 12 355 63 175 84 265 254 235 444 -20 124 -72
203 -168 254 -82 44 -151 59 -347 77 -191 17 -243 35 -282 94 -42 63 -24 156
38 204 51 38 115 51 237 45 115 -6 196 -28 262 -72 l37 -24 87 87 88 88 -32
26 c-42 36 -141 82 -218 102 -54 14 -245 37 -277 33 -5 0 -39 -4 -75 -8z"/>
<path d="M7664 6629 c-137 -17 -231 -60 -310 -140 l-49 -49 88 -87 87 -87 37
36 c62 60 142 91 249 96 149 7 246 -32 294 -118 l25 -45 0 -300 0 -300 -25
-50 c-43 -85 -134 -126 -282 -127 -103 0 -158 14 -203 53 -43 38 -58 85 -53
163 7 118 75 168 241 174 l97 4 0 94 0 94 -123 0 c-239 0 -374 -66 -449 -218
-32 -64 -33 -72 -33 -182 0 -105 2 -120 28 -175 37 -78 68 -118 123 -156 63
-43 143 -69 243 -79 153 -16 291 16 389 90 29 22 55 40 57 40 3 0 5 -27 5 -60
l0 -60 136 0 135 0 -3 518 c-3 510 -4 518 -26 581 -64 176 -187 261 -422 291
-95 11 -166 11 -256 -1z"/>
<path d="M11170 6625 c-184 -51 -319 -182 -384 -375 -35 -104 -46 -185 -46
-330 0 -451 222 -700 621 -700 170 0 356 66 468 167 l53 48 -86 83 -86 82 -60
-44 c-121 -89 -266 -117 -397 -78 -91 28 -151 80 -195 170 l-33 66 -3 209 c-3
187 -1 215 17 276 38 125 127 197 258 208 190 16 318 -100 340 -308 l6 -59
-202 0 -201 0 0 -95 0 -95 342 0 341 0 -6 133 c-11 227 -62 368 -175 489 -113
120 -205 158 -392 164 -91 3 -140 0 -180 -11z"/>
<path d="M15702 6630 c-137 -19 -243 -70 -322 -155 l-35 -37 89 -83 90 -84 39
36 c22 19 65 47 96 62 51 24 67 26 176 26 105 0 126 -3 167 -24 58 -28 103
-78 117 -128 7 -22 11 -151 11 -309 0 -317 -6 -352 -71 -407 -55 -47 -128 -69
-238 -69 -137 0 -208 30 -242 106 -25 54 -24 129 1 180 36 74 110 105 248 106
l72 0 0 95 0 95 -123 0 c-188 0 -296 -37 -388 -131 -70 -72 -93 -138 -93 -269
0 -131 22 -194 96 -276 88 -96 201 -137 378 -136 148 0 221 25 348 118 l22 16
0 -61 0 -61 135 0 135 0 0 493 c0 524 -4 577 -50 667 -54 105 -162 182 -301
215 -80 18 -274 27 -357 15z"/>
<path d="M8603 6618 c2 -7 80 -256 171 -553 92 -297 188 -604 212 -683 l45
-143 121 3 121 3 158 474 c87 260 160 475 162 478 3 2 78 -213 167 -477 l163
-481 120 3 120 3 213 685 c118 377 214 688 214 693 0 4 -66 7 -147 7 l-148 0
-129 -473 c-71 -259 -132 -478 -135 -485 -6 -11 -77 195 -279 816 l-47 143
-109 -3 -110 -3 -159 -485 c-115 -351 -162 -479 -167 -465 -4 11 -65 231 -136
488 l-128 467 -149 0 c-115 0 -148 -3 -144 -12z"/>
<path d="M14660 5935 l0 -695 140 0 140 0 0 695 0 695 -140 0 -140 0 0 -695z"/>
</g>
</svg>
